<?xml version="1.0" encoding="utf-8"?>
<!-- Generator: Adobe Illustrator 22.1.0, SVG Export Plug-In . SVG Version: 6.00 Build 0)  -->
<svg version="1.1" id="Capa_1" xmlns="http://www.w3.org/2000/svg" xmlns:xlink="http://www.w3.org/1999/xlink" x="0px" y="0px"
	 viewBox="0 0 438.9 85" style="enable-background:new 0 0 438.9 85;" xml:space="preserve">
<style type="text/css">
	.st0{fill:#FFFFFF;stroke:#000000;stroke-miterlimit:10;}
	.st1{fill:#F49C13;}
	.st2{fill:#FFFFFF;}
</style>
<circle class="st0" cx="42.5" cy="42.5" r="38.3"/>
<g id="Capa_2_1_">
	<g id="Capa_1-2">
		<path class="st1" d="M42.6,0C19.1,0,0,19,0,42.5S19,85,42.5,85S85,66,85,42.6c0,0,0,0,0,0l0,0C85,19.1,66,0,42.6,0 M42.6,6.8
			c19.7,0,35.7,16,35.7,35.7c0,6-1.5,11.9-4.4,17.1l-0.2-0.4c-0.2-0.6-0.3-1.3-0.6-1.9c-0.4-0.8-0.6-1.6-0.9-2.4
			c-0.7-1.5-1-3.1-1.6-4.6c-0.6-1.6-1-3.2-1.3-4.9c-0.2-0.8-0.3-1.6-0.5-2.4s-0.3-1.6-0.5-2.4c-0.1-0.4-0.3-0.9-0.4-1.3
			s0-0.3-0.3-0.4c-0.2,0-0.5,0-0.7,0.1c-0.2,0.1-0.4,0.2-0.6,0.3s-0.4,0-0.6,0.1c-0.4,0.2-0.3,0.8-0.7,1c0-0.5-0.1-0.9-0.4-1.3
			c-0.2-0.4-0.4-0.8-0.4-1.3c-0.1-0.4-0.3-0.9-0.4-1.4c-0.2-0.4-0.4-0.8-0.6-1.2c-0.4-0.9-0.7-1.8-1-2.7c-0.1-0.5-0.3-0.9-0.6-1.3
			c-0.1-0.2-0.2-0.4-0.4-0.5c-0.1-0.2-0.3-0.4-0.3-0.6c-0.2-0.5-0.5-0.9-0.8-1.3c-0.2-0.1-0.4,0-0.6,0s-0.4-0.3-0.5-0.4
			c-0.3-0.2-0.8-0.3-1.1-0.6s-0.4-0.8-1-0.9c0,0-0.6-0.1-0.6-0.1c-0.2,0-0.4,0.3-0.7,0.3c-0.5,0.1-1,0.3-1.4,0.6
			c-0.1,0.1-0.2,0.3-0.3,0.5s-0.3,0.4-0.5,0.6c-0.3,0.3-0.6,0.6-0.9,1c-0.1,0.2-0.1,0.4-0.4,0.5c-0.3,0.1-0.5,0.2-0.8,0.3
			c-0.5,0.2-0.9,0.5-1.3,0.8c-0.4,0.3-0.7,0.7-1,1c-0.3,0.3-0.8,0.5-1.2,0.8c-0.2,0.1-0.4,0.2-0.7,0.3c-0.4,0.2-0.3,0.2-0.5,0.5
			c-0.1,0.2-0.3,0.3-0.5,0.5c-0.3,0.3-0.3,0.3-0.5,0.1S45.4,34,45.1,34c-0.1,0-0.2,0.1-0.3,0.1s-0.1-0.2-0.3-0.3s0-0.2-0.3,0
			s-0.1,0.1-0.2,0.2S44,34.2,44,34.3s-0.2,0-0.4,0c-0.5,0.1-0.4,0.7-0.7,1c-0.3,0.3-0.6,0.7-0.8,1.1c-0.2,0.2-0.3,0.4-0.4,0.6
			c-0.1,0.2,0,0.5-0.2,0.7S41,37.8,40.9,38s-0.1,0.5-0.2,0.7c-0.2,0.4-0.4,0.8-0.5,1.3c-0.1,0.2-0.1,0.5-0.2,0.7s-0.3,0.3-0.4,0.6
			c-0.3,0.4-0.5,0.8-0.7,1.2c-0.2,0.5-0.1,1-0.3,1.5s-0.4,0.7-0.6,1.2c-0.2,0.4-0.4,0.8-0.8,1.1c-0.2,0.2-0.4,0.3-0.5,0.5
			c-0.1,0.2-0.1,0.5-0.1,0.7c-0.1,0.5-0.3,0.9-0.5,1.4c-0.4,0.9-0.8,1.8-1.3,2.6c-0.3,0.4-0.5,0.9-0.5,1.4c0,0.2-0.1,0.5-0.1,0.7
			c-0.1,0.2-0.3,0.2-0.5,0.3c-0.1,0.2-0.2,0.4-0.3,0.7c-0.1,0.2-0.2,0.4-0.4,0.6c-0.4-0.4-0.1-1.2-0.4-1.7c0-0.1-0.2-0.2-0.2-0.3
			s0-0.3-0.1-0.4c-0.1-0.3-0.3-0.5-0.5-0.6c-0.2-0.1-0.5,0.1-0.8,0s-0.5-0.2-0.5-0.6s0.1-0.6,0-0.8c-0.2-0.4-0.5-0.2-0.8,0
			c-0.1-0.3-0.2-0.6-0.3-0.9c0-0.2,0-0.8-0.3-1c-0.1,0-0.2,0.1-0.4,0c-0.1-0.1-0.3-0.1-0.4-0.3c-0.1-0.3-0.3-0.6-0.6-0.8
			c-0.3,0.4-0.6,0.9-0.8,1.4c-0.1,0.2-0.4,0.4-0.5,0.6c-0.1,0.3-0.3,0.5-0.5,0.7c-0.1-0.3-0.3-0.6-0.5-0.8c-0.2-0.2-0.5-0.3-0.7-0.5
			s-0.1-0.3-0.2-0.5s-0.3-0.2-0.4-0.3s0-0.3-0.1-0.4s-0.2-0.2-0.2-0.3s0-0.7-0.3-0.8s-0.5,0.4-0.7,0.6c-0.3,0.5-0.6,1.1-0.8,1.7
			c-0.1-1.3-0.2-2.6-0.4-3.9c-0.2-1.4-0.4-2.7-0.6-4c-0.1-0.3-0.2-0.6-0.2-0.9c-0.1-0.3,0-0.9-0.2-1.1s-0.5,0-0.8-0.2
			s-0.1-0.3-0.1-0.4c-0.1-0.2-0.2-0.4-0.4-0.6c-0.1-0.2-0.5-0.7-0.8-0.7s-0.5,0.4-0.6,0.6c-0.1,0.1-0.2,0.2-0.3,0.3
			c-0.1,0.2-0.1,0.3-0.2,0.5c-0.4,0.4-0.3-0.1-0.7,0s-0.4,0.5-0.5,0.7s0,0.4-0.1,0.5s-0.4,0-0.4,0.1c-0.2,0.3-0.3,0.6-0.4,0.8
			c-0.2,0.3-0.4,0.6-0.5,1c-0.1,0.4-0.3,0.4-0.6,0.7c-0.2,0.3-0.4,0.6-0.6,0.9c-0.1,0.3-0.3,0.6-0.4,0.9c-0.1,0.3-0.2,0.7-0.2,1
			c-0.3,0.6-0.7,1.1-1.1,1.7c-0.3,0.6-0.4,1.3-0.8,1.8c-0.2,0.3-0.4,0.6-0.6,0.9c-0.1,0.4-0.3,0.7-0.5,1c-0.2,0.2-0.4,0.4-0.6,0.7
			c-0.1,0.3-0.3,0.6-0.5,0.9c-0.3,0.3-0.5,0.7-0.6,1C2.6,34.2,13.2,14.2,32.1,8.4C35.5,7.3,39,6.8,42.6,6.8"/>
		<path class="st2" d="M112.3,21.3h26.7v6.4h-19.8v11.5h17.5v6.4h-17.5v11.8h20.1v6.4h-27L112.3,21.3z"/>
		<path class="st2" d="M146.8,21.3h7v36H172v6.5h-25.2V21.3z"/>
		<path class="st2" d="M192.5,42.8v-0.4c0-12.9,8-21.6,19-21.6c5-0.1,9.8,1.8,13.3,5.3l-4.2,5.4c-2.5-2.3-5.3-4.1-9.1-4.1
			c-6.7,0-11.7,6.1-11.7,15.1v0.2c0,9.2,5,15.2,11.7,15.2c4.1,0,6.7-1.9,9.4-4.4l4.1,5c-3.5,3.9-8.6,6.1-13.9,6
			C200.3,64.4,192.5,55.8,192.5,42.8z"/>
		<path class="st2" d="M231.5,21.3h7v17.8h16.7V21.3h7v42.4h-7V45.7h-16.6v18.1h-7L231.5,21.3z"/>
		<path class="st2" d="M283.9,21.1h6.8l15.6,42.7h-7.3l-3.5-10h-16.5l-3.5,10h-7.1L283.9,21.1z M293.2,47.5l-6.1-17l-6.1,17H293.2z"
			/>
		<path class="st2" d="M312.3,21.3h7v36h18.2v6.5h-25.2V21.3z"/>
		<path class="st2" d="M347.5,27.9h-11.2v-6.6h29.4v6.6h-11.2v35.9h-7L347.5,27.9z"/>
		<path class="st2" d="M372.4,21.3h26.8v6.4h-19.8v11.5h17.5v6.4h-17.5v11.8h20.1v6.4h-27L372.4,21.3z M389.1,9.8l6.2,2.8l-7.1,5.6
			H383L389.1,9.8z"/>
		<path class="st2" d="M406.8,21.3h6.5L432,49.6V21.3h6.9v42.4h-5.9l-19.2-29.2v29.2h-6.9V21.3z"/>
	</g>
</g>
</svg>
